<svg xmlns="http://www.w3.org/2000/svg" width="17" height="12" viewBox="0 0 17 12">
    <path fill="#F6CD35" fill-rule="evenodd" d="M8.5.667c2.888 0 5.23 2.388 5.23 5.333 0 2.945-2.342 5.333-5.23 5.333-2.889 0-5.23-2.388-5.23-5.333C3.27 3.055 5.61.667 8.5.667zM1.308 6c0 1.801.653 3.537 1.842 4.888a.674.674 0 0 1-.05.941.644.644 0 0 1-.923-.05A8.74 8.74 0 0 1 0 6 8.74 8.74 0 0 1 2.177.222.646.646 0 0 1 3.1.172c.269.244.29.666.05.94A7.393 7.393 0 0 0 1.308 6zM14.823.222A8.747 8.747 0 0 1 17 6c0 2.13-.774 4.183-2.177 5.779a.647.647 0 0 1-.923.05.674.674 0 0 1-.05-.941 7.4 7.4 0 0 0 0-9.776.674.674 0 0 1 .05-.94.644.644 0 0 1 .923.05z"/>
</svg>
