<svg xmlns="http://www.w3.org/2000/svg" width="16" height="16" viewBox="0 0 16 16">
    <g fill="#D3D3D3" fill-rule="evenodd">
        <path d="M7.944 9.535c.876 0 1.591-.714 1.591-1.59 0-.347-.113-.667-.3-.928a1.588 1.588 0 0 0-1.29-.663c-.53 0-1 .262-1.29.663a1.591 1.591 0 0 0 1.289 2.518zM11.417 5.999V4.467h-.2l-1.332.005.005 1.532z"/>
        <path d="M7.944 0C3.564 0 0 3.564 0 7.944s3.564 7.945 7.944 7.945 7.945-3.565 7.945-7.945C15.889 3.564 12.325 0 7.944 0zm4.518 7.017v3.7c0 .963-.783 1.746-1.746 1.746H5.172a1.748 1.748 0 0 1-1.746-1.747V5.173c0-.963.783-1.746 1.746-1.746h5.544c.963 0 1.746.783 1.746 1.746v1.844z"/>
        <path d="M10.416 7.944a2.474 2.474 0 0 1-2.472 2.472 2.474 2.474 0 0 1-2.289-3.399H4.306v3.7c0 .478.388.865.866.865h5.544a.866.866 0 0 0 .865-.866V7.017h-1.349c.117.286.184.6.184.927z"/>
    </g>
</svg>
