<svg height="16" viewBox="0 0 17 16" width="17" xmlns="http://www.w3.org/2000/svg"><path d="m17 7.448c0 4.107-3.813 7.449-8.5 7.449a9.442 9.442 0 0 1 -3.469-.648c-1.928 1.083-4.594 1.457-4.708 1.471a.284.284 0 0 1 -.293-.15.27.27 0 0 1 .053-.318c.652-.634 1.1-1.973 1.268-3.776-.885-1.202-1.351-2.592-1.351-4.028 0-4.107 3.813-7.448 8.5-7.448s8.5 3.341 8.5 7.448zm-11.333 0c0-.608-.509-1.103-1.134-1.103s-1.133.495-1.133 1.103c0 .609.508 1.104 1.133 1.104s1.134-.495 1.134-1.104zm3.966 0c0-.608-.508-1.103-1.133-1.103s-1.133.495-1.133 1.103c0 .609.508 1.104 1.133 1.104s1.133-.495 1.133-1.104zm3.967 0c0-.608-.508-1.103-1.133-1.103s-1.134.495-1.134 1.103c0 .609.509 1.104 1.134 1.104s1.133-.495 1.133-1.104z" fill="#d3d3d3" fill-rule="evenodd"/></svg>