<svg height="76" viewBox="0 0 80 76" width="80" xmlns="http://www.w3.org/2000/svg"><g fill="#ecb84c" fill-rule="evenodd"><path d="m74.483.038h-69.104c-3.034 0-5.379 2.346-5.379 5.382v11.182c0 1.933.828 3.865 2.207 5.108.599.48 1.25.88 1.931 1.181v51.69c0 .828.552 1.38 1.38 1.38h68.965c.827 0 1.38-.552 1.38-1.38v-51.685c2.417-1.163 4.137-3.736 4.137-6.569v-10.906c0-3.037-2.345-5.383-5.517-5.383zm-16.553 2.76h8.138v13.805c0 .277.022.554.06.83-.367 1.927-2 3.312-4.06 3.312-2.345 0-4.138-1.795-4.138-4.142v-13.803zm-11.034 0h8.276v13.805c0 2.347-1.794 4.142-4.138 4.142-2.345 0-4.138-1.795-4.138-4.142v-13.803zm-11.035 0h8.276v13.805c0 2.347-1.793 4.142-4.138 4.142s-4.138-1.795-4.138-4.142v-13.803zm-11.034 0h8.276v13.805c0 2.347-1.794 4.142-4.138 4.142-2.345 0-4.138-1.795-4.138-4.142v-13.803zm-11.035 0h8.276v13.805c0 2.347-1.793 4.142-4.138 4.142s-4.138-1.795-4.138-4.142v-13.803zm-11.032 13.806v-11.183c0-1.518 1.103-2.622 2.62-2.622h5.655v13.528c0 2.065-1.446 3.887-3.324 4.342a4.384 4.384 0 0 1 -.63.071c-1.043-.037-2.172-.329-2.942-1.1-.828-.69-1.38-1.933-1.38-3.037zm4.827 6.902a6.523 6.523 0 0 0 1.578-.395 6.99 6.99 0 0 0 3.233-2.344c1.248 1.673 3.246 2.74 5.534 2.74 2.278 0 4.268-1.058 5.517-2.719 1.25 1.66 3.24 2.718 5.517 2.718 2.279 0 4.268-1.057 5.518-2.718 1.249 1.66 3.239 2.718 5.517 2.718s4.268-1.057 5.517-2.718c1.25 1.66 3.239 2.718 5.517 2.718 2.279 0 4.268-1.057 5.517-2.718 1.25 1.66 3.24 2.718 5.518 2.718 2.271 0 4.256-1.051 5.506-2.703.256.33.537.637.838.909.221.177.45.342.684.496a7 7 0 0 0 3.376 1.265l.03.003a6.81 6.81 0 0 0 .6.03v5.522h-66.207v-5.522zm6.207 49.696v-35.892h16.552v19.326h-2.759c-.827 0-1.38.552-1.38 1.38 0 .829.553 1.381 1.38 1.381h2.759v13.804h-16.553zm59.31 0h-40v-37.272c0-.828-.551-1.38-1.379-1.38h-19.31c-.828 0-1.38.552-1.38 1.38v37.272h-4.138v-41.414h66.206v41.413zm4.138-56.874c0 2.04-1.25 3.661-2.936 4.233a1.04 1.04 0 0 0 -.236.046c-.203.102-.48.129-.723.136-1.06-.028-2.216-.316-3.001-1.102-.828-.69-1.38-1.933-1.38-3.037v-13.805h5.656c1.517 0 2.62 1.242 2.62 2.622v10.906z"/><path d="m38.62 67.68h30.345c.828 0 1.38-.553 1.38-1.38v-30.37c0-.829-.552-1.381-1.38-1.381h-30.345c-.827 0-1.379.552-1.379 1.38v30.371c0 .828.552 1.38 1.38 1.38zm19.311-6.903c.828 0 1.38-.552 1.38-1.38 0-.829-.552-1.38-1.38-1.38h-8.276c-.828 0-1.38.551-1.38 1.38 0 .828.553 1.38 1.38 1.38h2.759v4.142h-5.556c-.273-4.917-1.988-9.022-4.513-11.044 3.254-2.736 5.648-8.916 5.906-16.565h11.082c.246 7.649 2.524 13.83 5.908 16.565-2.525 2.022-4.24 6.127-4.513 11.044h-5.556v-4.142h2.76zm9.655 4.142h-4.138c.414-4.694 2.207-8.145 4.138-9.25zm0-27.61v14.771c-2.758-1.518-5.241-7.04-5.517-14.77h5.517zm-27.586.001h5.517c-.276 7.73-2.896 13.253-5.517 14.77zm0 18.36c2.069 1.105 3.862 4.556 4.138 9.25h-4.138zm-12.414-5.936v-8.284c0-.828-.551-1.38-1.38-1.38h-8.275c-.828 0-1.38.552-1.38 1.38v8.283c0 .828.552 1.38 1.38 1.38h8.276c.828 0 1.38-.552 1.38-1.38zm-2.758-1.38h-5.518v-5.522h5.518v5.521z"/></g></svg>