<svg xmlns="http://www.w3.org/2000/svg" width="20" height="12" viewBox="0 0 20 12">
    <g fill="none" fill-rule="evenodd">
        <path fill="#F5F5F5" d="M19.617 11.99H.344c-.19 0-.344-.141-.344-.315V.325C0 .151.154.01.344.01h19.273c.19 0 .344.141.344.315v11.35c0 .174-.154.315-.344.315z"/>
        <g fill="#FF4B55">
            <path d="M19.961.931H0V.325C0 .151.154.01.344.01h19.273c.19 0 .344.141.344.315v.606zM0 3.696h19.961v.922H0zM0 1.853h19.961v.922H0zM19.961 6.46H.344C.154 6.46 0 6.32 0 6.147v-.607h19.961v.922zM0 9.226h19.961v.921H0zM19.617 11.99H.344c-.19 0-.344-.141-.344-.315v-.606h19.961v.606c0 .174-.154.315-.344.315zM0 7.382h19.961v.922H0z"/>
        </g>
        <path fill="#41479B" d="M8.948.01H.344C.154.01 0 .15 0 .325v5.82c0 .175.154.316.344.316h8.604c.19 0 .344-.141.344-.316V.325c0-.174-.154-.315-.344-.315z"/>
        <g fill="#F5F5F5">
            <path d="M.966.733l.077.21.24.001c.032 0 .045.037.02.054l-.194.131.072.21c.01.028-.024.05-.05.034l-.195-.129-.196.129c-.026.016-.06-.006-.05-.034l.073-.21L.569 1C.544.98.557.944.588.943l.24-.001.077-.21c.01-.027.052-.027.061 0zM.966 1.828l.077.21.24.001c.032 0 .045.037.02.054l-.194.13.072.211c.01.027-.024.05-.05.033L.937 2.34l-.196.128c-.026.017-.06-.006-.05-.033l.073-.21-.194-.131c-.025-.017-.012-.054.019-.054l.24-.001.077-.21c.01-.027.052-.027.061 0zM.966 2.923l.077.21.24.001c.032 0 .045.037.02.054l-.194.13.072.211c.01.027-.024.05-.05.033l-.195-.128-.196.128C.714 3.58.68 3.556.69 3.53l.073-.21-.194-.131c-.025-.017-.012-.054.019-.054l.24-.002.077-.209c.01-.027.052-.027.061 0zM.966 4.018l.077.21h.24c.032.001.045.037.02.054l-.194.132.072.21c.01.027-.024.05-.05.033l-.195-.128-.196.128c-.026.017-.06-.006-.05-.033l.073-.21-.194-.132C.544 4.265.557 4.23.588 4.23l.24-.002.077-.21c.01-.026.052-.026.061 0zM.966 5.113l.077.209.24.002c.032 0 .045.036.02.053l-.194.131.072.21c.01.028-.024.05-.05.034l-.195-.128-.196.128c-.026.016-.06-.006-.05-.033l.073-.21-.194-.132c-.025-.017-.012-.053.019-.053l.24-.002.077-.21c.01-.027.052-.027.061 0zM1.894 1.27l.076.21.241.001c.031 0 .044.037.02.054l-.195.13.073.211c.01.027-.024.05-.05.033l-.196-.128-.196.128c-.025.017-.059-.006-.05-.033l.073-.21-.194-.131c-.025-.017-.012-.054.02-.054l.24-.002.077-.209c.01-.027.051-.027.061 0zM1.894 2.365l.076.21.241.001c.031 0 .044.037.02.054l-.195.13.073.211c.01.027-.024.05-.05.033l-.196-.128-.196.128c-.025.017-.059-.006-.05-.033l.073-.21-.194-.131c-.025-.017-.012-.054.02-.054l.24-.002.077-.209c.01-.027.051-.027.061 0zM1.894 3.46l.076.21h.241c.031.001.044.037.02.054l-.195.131.073.21c.01.028-.024.05-.05.034l-.196-.128-.196.128c-.025.017-.059-.006-.05-.033l.073-.21-.194-.132c-.025-.017-.012-.053.02-.053l.24-.002.077-.21c.01-.026.051-.026.061 0zM1.894 4.555l.076.209.241.002c.031 0 .044.036.02.053l-.195.131.073.21c.01.028-.024.05-.05.034l-.196-.129-.196.129c-.025.016-.059-.006-.05-.033l.073-.21-.194-.132c-.025-.017-.012-.053.02-.053l.24-.002.077-.21c.01-.026.051-.026.061 0zM2.822.733l.076.21.24.001c.032 0 .045.037.02.054l-.194.131.073.21c.009.028-.025.05-.05.034l-.196-.129-.196.129c-.025.016-.06-.006-.05-.034l.073-.21L2.424 1C2.4.98 2.412.944 2.444.943l.24-.001.076-.21c.01-.027.052-.027.062 0zM2.822 1.828l.076.21.24.001c.032 0 .045.037.02.054l-.194.13.073.211c.009.027-.025.05-.05.033L2.79 2.34l-.196.128c-.025.017-.06-.006-.05-.033l.073-.21-.194-.131c-.025-.017-.012-.054.02-.054l.24-.001.076-.21c.01-.027.052-.027.062 0zM2.822 2.923l.076.21.24.001c.032 0 .045.037.02.054l-.194.13.073.211c.009.027-.025.05-.05.033l-.196-.128-.196.128c-.025.017-.06-.006-.05-.033l.073-.21-.194-.131c-.025-.017-.012-.054.02-.054l.24-.002.076-.209c.01-.027.052-.027.062 0zM2.822 4.018l.076.21h.24c.032.001.045.037.02.054l-.194.132.073.21c.009.027-.025.05-.05.033l-.196-.128-.196.128c-.025.017-.06-.006-.05-.033l.073-.21-.194-.132c-.025-.017-.012-.053.02-.053l.24-.002.076-.21c.01-.026.052-.026.062 0zM2.822 5.113l.076.209.24.002c.032 0 .045.036.02.053l-.194.131.073.21c.009.028-.025.05-.05.034l-.196-.129-.196.129c-.025.016-.06-.006-.05-.033l.073-.21-.194-.132c-.025-.017-.012-.053.02-.053l.24-.002.076-.21c.01-.027.052-.027.062 0zM3.75 1.27l.075.21.241.001c.031 0 .044.037.02.054l-.194.13.072.211c.01.027-.024.05-.05.033l-.195-.128-.196.128c-.026.017-.06-.006-.05-.033l.072-.21-.193-.131c-.025-.017-.012-.054.019-.054l.24-.002.077-.209c.01-.027.051-.027.061 0zM3.75 2.365l.075.21.241.001c.031 0 .044.037.02.054l-.194.13.072.211c.01.027-.024.05-.05.033l-.195-.128-.196.128c-.026.017-.06-.006-.05-.033l.072-.21-.193-.131c-.025-.017-.012-.054.019-.054l.24-.002.077-.209c.01-.027.051-.027.061 0zM3.75 3.46l.075.21h.241c.031.001.044.037.02.054l-.194.131.072.21c.01.028-.024.05-.05.034l-.195-.128-.196.128c-.026.017-.06-.006-.05-.033l.072-.21-.193-.132c-.025-.017-.012-.053.019-.053l.24-.002.077-.21c.01-.026.051-.026.061 0zM3.75 4.555l.075.209.241.002c.031 0 .044.036.02.053l-.194.131.072.21c.01.028-.024.05-.05.034l-.195-.129-.196.129c-.026.016-.06-.006-.05-.033l.072-.21-.193-.132c-.025-.017-.012-.053.019-.053l.24-.002.077-.21c.01-.026.051-.026.061 0zM4.677.733l.076.21.24.001c.032 0 .045.037.02.054l-.194.131.073.21c.01.028-.025.05-.05.034l-.196-.129-.196.129c-.025.016-.059-.006-.05-.034l.073-.21L4.279 1C4.254.98 4.267.944 4.3.943l.24-.001.076-.21c.01-.027.052-.027.062 0zM4.677 1.828l.076.21.24.001c.032 0 .045.037.02.054l-.194.13.073.211c.01.027-.025.05-.05.033l-.196-.128-.196.128c-.025.017-.059-.006-.05-.033l.073-.21-.194-.131c-.025-.017-.012-.054.02-.054l.24-.001.076-.21c.01-.027.052-.027.062 0zM4.677 2.923l.076.21.24.001c.032 0 .045.037.02.054l-.194.13.073.211c.01.027-.025.05-.05.033l-.196-.128-.196.128c-.025.017-.059-.006-.05-.033l.073-.21-.194-.131c-.025-.017-.012-.054.02-.054l.24-.002.076-.209c.01-.027.052-.027.062 0zM4.677 4.018l.076.21h.24c.032.001.045.037.02.054l-.194.132.073.21c.01.027-.025.05-.05.033l-.196-.128-.196.128c-.025.017-.059-.006-.05-.033l.073-.21-.194-.132c-.025-.017-.012-.053.02-.053l.24-.002.076-.21c.01-.026.052-.026.062 0zM4.677 5.113l.076.209.24.002c.032 0 .045.036.02.053l-.194.131.073.21c.01.028-.025.05-.05.034l-.196-.129-.196.129c-.025.016-.059-.006-.05-.033l.073-.21-.194-.132c-.025-.017-.012-.053.02-.053l.24-.002.076-.21c.01-.027.052-.027.062 0zM5.604 1.27l.077.21.24.001c.032 0 .045.037.02.054l-.194.13.072.211c.01.027-.024.05-.05.033l-.195-.128-.196.128c-.026.017-.06-.006-.05-.033l.073-.21-.194-.131c-.025-.017-.012-.054.019-.054l.24-.002.077-.209c.01-.027.052-.027.061 0zM5.604 2.365l.077.21.24.001c.032 0 .045.037.02.054l-.194.13.072.211c.01.027-.024.05-.05.033l-.195-.128-.196.128c-.026.017-.06-.006-.05-.033l.073-.21-.194-.131c-.025-.017-.012-.054.019-.054l.24-.002.077-.209c.01-.027.052-.027.061 0zM5.604 3.46l.077.21h.24c.032.001.045.037.02.054l-.194.131.072.21c.01.028-.024.05-.05.034l-.195-.128-.196.128c-.026.017-.06-.006-.05-.033l.073-.21-.194-.132c-.025-.017-.012-.053.019-.053l.24-.002.077-.21c.01-.026.052-.026.061 0zM5.604 4.555l.077.209.24.002c.032 0 .045.036.02.053l-.194.131.072.21c.01.028-.024.05-.05.034l-.195-.129-.196.129c-.026.016-.06-.006-.05-.033l.073-.21-.194-.132c-.025-.017-.012-.053.019-.053l.24-.002.077-.21c.01-.026.052-.026.061 0zM6.532.733l.076.21.241.001c.031 0 .044.037.02.054l-.195.131.073.21c.01.028-.024.05-.05.034l-.196-.129-.196.129c-.025.016-.059-.006-.05-.034l.073-.21L6.135 1C6.11.98 6.122.944 6.154.943l.24-.001.077-.21c.01-.027.051-.027.061 0zM6.532 1.828l.076.21.241.001c.031 0 .044.037.02.054l-.195.13.073.211c.01.027-.024.05-.05.033l-.196-.128-.196.128c-.025.017-.059-.006-.05-.033l.073-.21-.193-.131c-.025-.017-.013-.054.019-.054l.24-.001.077-.21c.01-.027.051-.027.061 0zM6.532 2.923l.076.21.241.001c.031 0 .044.037.02.054l-.195.13.073.211c.01.027-.024.05-.05.033l-.196-.128-.196.128c-.025.017-.059-.006-.05-.033l.073-.21-.193-.131c-.025-.017-.013-.054.019-.054l.24-.002.077-.209c.01-.027.051-.027.061 0zM6.532 4.018l.076.21h.241c.031.001.044.037.02.054l-.195.132.073.21c.01.027-.024.05-.05.033l-.196-.128-.196.128c-.025.017-.059-.006-.05-.033l.073-.21-.193-.132c-.025-.017-.013-.053.019-.053l.24-.002.077-.21c.01-.026.051-.026.061 0zM6.532 5.113l.076.209.241.002c.031 0 .044.036.02.053l-.195.131.073.21c.01.028-.024.05-.05.034l-.196-.129-.196.129c-.025.016-.059-.006-.05-.033l.073-.21-.193-.132c-.025-.017-.013-.053.019-.053l.24-.002.077-.21c.01-.027.051-.027.061 0zM7.46 1.27l.076.21.24.001c.032 0 .045.037.02.054l-.194.13.073.211c.01.027-.025.05-.05.033l-.196-.128-.196.128c-.025.017-.06-.006-.05-.033l.073-.21-.194-.131c-.025-.017-.012-.054.02-.054l.24-.002.076-.209c.01-.027.052-.027.062 0zM7.46 2.365l.076.21.24.001c.032 0 .045.037.02.054l-.194.13.073.211c.01.027-.025.05-.05.033l-.196-.128-.196.128c-.025.017-.06-.006-.05-.033l.073-.21-.194-.131c-.025-.017-.012-.054.02-.054l.24-.002.076-.209c.01-.027.052-.027.062 0zM7.46 3.46l.076.21h.24c.032.001.045.037.02.054l-.194.131.073.21c.01.028-.025.05-.05.034l-.196-.128-.196.128c-.025.017-.06-.006-.05-.033l.073-.21-.194-.132c-.025-.017-.012-.053.02-.053l.24-.002.076-.21c.01-.026.052-.026.062 0zM7.46 4.555l.076.209.24.002c.032 0 .045.036.02.053l-.194.131.073.21c.01.028-.025.05-.05.034l-.196-.129-.196.129c-.025.016-.06-.006-.05-.033l.073-.21-.194-.132c-.025-.017-.012-.053.02-.053l.24-.002.076-.21c.01-.026.052-.026.062 0zM8.387.733l.077.21.24.001c.032 0 .044.037.02.054l-.194.131.072.21c.01.028-.024.05-.05.034l-.195-.129-.196.129c-.026.016-.06-.006-.05-.034l.073-.21L7.99 1C7.965.98 7.978.944 8.009.943l.24-.001.077-.21c.01-.027.051-.027.061 0zM8.387 1.828l.077.21.24.001c.032 0 .044.037.02.054l-.194.13.072.211c.01.027-.024.05-.05.033l-.195-.128-.196.128c-.026.017-.06-.006-.05-.033l.073-.21-.194-.131c-.025-.017-.012-.054.019-.054l.24-.001.077-.21c.01-.027.051-.027.061 0zM8.387 2.923l.077.21.24.001c.032 0 .044.037.02.054l-.194.13.072.211c.01.027-.024.05-.05.033l-.195-.128-.196.128c-.026.017-.06-.006-.05-.033l.073-.21-.194-.131c-.025-.017-.012-.054.019-.054l.24-.002.077-.209c.01-.027.051-.027.061 0zM8.387 4.018l.077.21h.24c.032.001.044.037.02.054l-.194.132.072.21c.01.027-.024.05-.05.033l-.195-.128-.196.128c-.026.017-.06-.006-.05-.033l.073-.21-.194-.132c-.025-.017-.012-.053.019-.053l.24-.002.077-.21c.01-.026.051-.026.061 0zM8.387 5.113l.077.209.24.002c.032 0 .044.036.02.053l-.194.131.072.21c.01.028-.024.05-.05.034l-.195-.129-.196.129c-.026.016-.06-.006-.05-.033l.073-.21-.194-.132c-.025-.017-.012-.053.019-.053l.24-.002.077-.21c.01-.027.051-.027.061 0z"/>
        </g>
    </g>
</svg>
